<svg width="17" viewBox="0 0 17 12">
                                <path fill="#FFF" stroke="#000" stroke-opacity=".2" stroke-width=".5" d="M1.6.18h13.8c.79 0 1.42.63 1.42 1.41v8.74c0 .78-.63 1.42-1.41 1.42H1.59c-.78 0-1.41-.64-1.41-1.42V1.6C.18.81.8.18 1.59.18z"></path>
                                <path fill="#1434cb" d="M1.98 4.39A5.1 5.1 0 0 0 .7 3.9l.02-.09h1.93c.27 0 .48.1.55.37l.42 2.01.13.6 1.18-2.97h1.28l-1.9 4.35H3.05l-1.07-3.8zm5.17 3.8h-1.2l.75-4.37h1.2l-.75 4.37zm4.37-4.26l-.16.95-.11-.05c-.21-.09-.5-.18-.9-.17-.48 0-.69.19-.7.38 0 .2.27.33.68.54.7.3 1.02.69 1.02 1.19-.01.9-.83 1.48-2.1 1.48-.54 0-1.06-.1-1.34-.22l.16-.99.17.07c.39.17.64.24 1.13.24.34 0 .71-.14.72-.43 0-.19-.16-.33-.63-.54-.45-.22-1.06-.57-1.05-1.2 0-.84.85-1.44 2.03-1.44.47 0 .85.1 1.08.19zm1.6 2.72h1l-.27-1.27-.09-.38-.15.43-.48 1.22zm1.5-2.83l.96 4.37h-1.12l-.14-.65h-1.54l-.26.65h-1.26l1.79-4c.13-.3.34-.36.63-.36h.93v-.01z"></path>
                              </svg>
                              <svg width="17" viewBox="0 0 17 12">
                                <rect width="17" height="12" fill="#0A2540" rx="2"></rect>
                                <circle cx="6" cy="6" r="3.6" fill="#ED0006"></circle>
                                <circle cx="10.8" cy="6" r="3.6" fill="#F9A000"></circle>
                                <path fill="#FF5D00" d="M8.4 3.32a3.6 3.6 0 0 1 0 5.36 3.58 3.58 0 0 1-.08-5.29z"></path>
                              </svg>
                              <svg width="17" viewBox="0 0 17 12">
                                <rect width="17" height="12" fill="#016FD0" rx="2"></rect>
                                <polygon fill="#FFF" points="9.347 10.101 9.347 5.801 17 5.808 17 6.996 16.115 7.941 17 8.895 17 10.108 15.588 10.108 14.837 9.28 14.092 10.111"></polygon>
                                <polygon fill="#016FD0" points="9.858 9.63 9.858 6.275 12.703 6.275 12.703 7.047 10.779 7.047 10.779 7.572 12.657 7.572 12.657 8.332 10.779 8.332 10.779 8.847 12.703 8.847 12.703 9.63"></polygon>
                                <polygon fill="#016FD0" points="12.689 9.63 14.263 7.95 12.689 6.275 13.907 6.275 14.869 7.338 15.834 6.275 17 6.275 17 6.301 15.459 7.95 17 9.582 17 9.63 15.822 9.63 14.843 8.556 13.874 9.63"></polygon>
                                <polygon fill="#FFF" points="9.704 1.985 11.549 1.985 12.197 3.456 12.197 1.985 14.474 1.985 14.867 3.087 15.261 1.985 17 1.985 17 6.285 7.809 6.285"></polygon>
                                <path fill="#016FD0" d="M10.05 2.45L8.56 5.8H9.6l.28-.67h1.52l.28.67h1.05l-1.49-3.35h-1.18zm.13 1.93l.45-1.07.44 1.07h-.89z"></path>
                                <polygon fill="#016FD0" points="12.701 5.804 12.701 2.451 14.137 2.457 14.875 4.517 15.619 2.451 17 2.451 17 5.804 16.111 5.812 16.111 3.509 15.272 5.804 14.461 5.804 13.604 3.501 13.604 5.804"></polygon>
                              </svg>
                              <svg width="17" viewBox="0 0 17 12">
                                <path fill="#FFF" stroke="#000" stroke-opacity=".2" stroke-width=".5" d="M15.58 11.75c.68 0 1.24-.55 1.24-1.24V1.4c0-.32-.14-.64-.37-.87a1.22 1.22 0 0 0-.87-.36H1.42C1.09.18.78.3.55.53a1.3 1.3 0 0 0-.37.89v9.09c0 .32.14.64.37.88.23.23.54.36.87.36h14.16z"></path>
                                <path fill="#F27712" d="M8.93 12.07h6.65c.78 0 1.41-.62 1.42-1.4V9a27.44 27.44 0 0 1-8.07 3.07z"></path>
                                <path fill="#000" d="M16.41 6.79h-.6l-.68-.9h-.07v.9h-.49V4.56h.73c.57 0 .9.23.9.65 0 .35-.21.57-.57.64l.78.94zm-.72-1.56c0-.21-.17-.33-.47-.33h-.15v.68h.14c.31 0 .48-.12.48-.35zm-2.83-.67h1.38v.37h-.9v.5h.87v.38h-.87v.6h.9v.38h-1.4V4.56h.02zm-1.6 2.28l-1.06-2.3h.54l.67 1.51.68-1.5h.53l-1.07 2.3h-.28zm-4.46 0c-.75 0-1.34-.51-1.34-1.17 0-.65.6-1.17 1.35-1.17.21 0 .39.04.6.13v.52a.88.88 0 0 0-.61-.25c-.47 0-.83.34-.83.77 0 .44.36.77.85.77.23 0 .4-.07.6-.25v.52c-.23.1-.41.13-.62.13zM5.31 6.1c0 .43-.35.73-.88.73-.37 0-.63-.13-.87-.43l.33-.26c.1.2.3.3.53.3.22 0 .38-.15.38-.32 0-.1-.05-.18-.15-.23-.1-.05-.22-.1-.34-.13-.46-.15-.62-.3-.62-.62 0-.36.34-.63.79-.63.28 0 .53.08.74.24l-.25.3a.54.54 0 0 0-.4-.18c-.21 0-.37.11-.37.25 0 .12.1.18.38.28.57.18.73.34.73.7zM2.9 4.56h.5v2.23h-.5V4.56zM1.3 6.79H.59V4.56h.72c.8 0 1.35.46 1.35 1.1 0 .35-.16.66-.45.87-.25.18-.52.26-.9.26zm.57-1.67c-.16-.13-.35-.18-.67-.18h-.13v1.48h.14c.31 0 .5-.06.66-.18a.7.7 0 0 0 0-1.12z"></path>
                                <path fill="#F27712" d="M8.79 4.5c-.64 0-1.17.52-1.17 1.15 0 .68.5 1.2 1.17 1.2.66 0 1.18-.52 1.18-1.18 0-.65-.51-1.17-1.18-1.17z"></path>
                              </svg>