<svg width="72" height="91" viewBox="0 0 72 91" fill="none" xmlns="http://www.w3.org/2000/svg">
<path d="M47.2675 0.5H3.25289C1.45637 0.5 0 1.95637 0 3.75289V69.9255C0 71.722 1.45637 73.1784 3.25289 73.1784H47.2675C49.064 73.1784 50.5204 71.722 50.5204 69.9255V3.75289C50.5204 1.95637 49.064 0.5 47.2675 0.5Z" fill="url(#paint0_linear_4003_234)"/>
<path d="M50.5204 38.9159C31.3754 20.6215 16.6356 13.7743 0.45563 12.2937L0 12.252V22.2955C13.8831 23.6688 27.2888 29.7493 46.9645 49.4249L50.5 52.9606L50.5204 52.9402V38.9159Z" fill="#FAB000"/>
<path d="M12.5921 51.9742C16.1123 51.9742 18.9659 49.1206 18.9659 45.6004C18.9659 42.0802 16.1123 39.2266 12.5921 39.2266C9.07191 39.2266 6.21826 42.0802 6.21826 45.6004C6.21826 49.1206 9.07191 51.9742 12.5921 51.9742Z" fill="url(#paint1_radial_4003_234)"/>
<path d="M6.32053 62.9739V67.645H5.48779V62.9739H6.32053ZM6.81283 66.9945L7.39835 66.526C7.60003 66.8578 7.99038 67.079 8.38723 67.079C8.71903 67.079 9.0248 66.9619 9.0248 66.6562C9.0248 66.3634 8.73854 66.3309 8.19856 66.2203C7.65858 66.1097 7.04053 65.973 7.04053 65.2444C7.04053 64.6198 7.58702 64.1644 8.37422 64.1644C8.97275 64.1644 9.50623 64.4312 9.75345 64.8085L9.22648 65.2834C9.03131 64.9777 8.70602 64.802 8.32868 64.802C8.0099 64.802 7.80171 64.9451 7.80171 65.1728C7.80171 65.4201 8.04893 65.4656 8.47831 65.5567C9.05733 65.6803 9.78598 65.8039 9.78598 66.5846C9.78598 67.2742 9.15492 67.7166 8.38073 67.7166C7.74966 67.7166 7.1186 67.4629 6.81283 66.9945ZM10.0276 66.9945L10.6131 66.526C10.8148 66.8578 11.2052 67.079 11.602 67.079C11.9338 67.079 12.2396 66.9619 12.2396 66.6562C12.2396 66.3634 11.9533 66.3309 11.4133 66.2203C10.8734 66.1097 10.2553 65.973 10.2553 65.2444C10.2553 64.6198 10.8018 64.1644 11.589 64.1644C12.1875 64.1644 12.721 64.4312 12.9682 64.8085L12.4413 65.2834C12.2461 64.9777 11.9208 64.802 11.5435 64.802C11.2247 64.802 11.0165 64.9451 11.0165 65.1728C11.0165 65.4201 11.2637 65.4656 11.6931 65.5567C12.2721 65.6803 13.0008 65.8039 13.0008 66.5846C13.0008 67.2742 12.3697 67.7166 11.5955 67.7166C10.9644 67.7166 10.3334 67.4629 10.0276 66.9945ZM16.4432 64.2295V67.645H15.6625V67.2807C15.4674 67.5084 15.1746 67.7166 14.7322 67.7166C14.0166 67.7166 13.5742 67.2287 13.5742 66.4935V64.2295H14.3549V66.3244C14.3549 66.7407 14.537 67.0075 14.9599 67.0075C15.3112 67.0075 15.6625 66.7472 15.6625 66.2593V64.2295H16.4432ZM18.7104 67.7166C17.7345 67.7166 17.0514 66.9945 17.0514 65.9405C17.0514 64.9386 17.728 64.1644 18.6778 64.1644C19.6667 64.1644 20.1937 64.9126 20.1937 65.8494V66.1097H17.7995C17.8581 66.6952 18.2094 67.053 18.7104 67.053C19.0942 67.053 19.4 66.8578 19.5041 66.5065L20.1742 66.7602C19.9334 67.3588 19.3935 67.7166 18.7104 67.7166ZM18.6713 64.8215C18.268 64.8215 17.9557 65.0622 17.8386 65.5241H19.4065C19.4 65.1468 19.1658 64.8215 18.6713 64.8215ZM21.9313 65.3095C21.9313 63.8847 22.6079 62.9023 23.766 62.9023C24.924 62.9023 25.6006 63.8847 25.6006 65.3095C25.6006 66.7342 24.924 67.7166 23.766 67.7166C22.6079 67.7166 21.9313 66.7342 21.9313 65.3095ZM22.7641 65.3095C22.7641 66.2918 23.0763 66.9945 23.766 66.9945C24.4556 66.9945 24.7679 66.2918 24.7679 65.3095C24.7679 64.3271 24.4556 63.6245 23.766 63.6245C23.0763 63.6245 22.7641 64.3271 22.7641 65.3095ZM26.0419 65.3095C26.0419 63.8847 26.7185 62.9023 27.8765 62.9023C29.0346 62.9023 29.7112 63.8847 29.7112 65.3095C29.7112 66.7342 29.0346 67.7166 27.8765 67.7166C26.7185 67.7166 26.0419 66.7342 26.0419 65.3095ZM26.8747 65.3095C26.8747 66.2918 27.1869 66.9945 27.8765 66.9945C28.5662 66.9945 28.8784 66.2918 28.8784 65.3095C28.8784 64.3271 28.5662 63.6245 27.8765 63.6245C27.1869 63.6245 26.8747 64.3271 26.8747 65.3095ZM30.1085 66.9684L31.2795 66.0056C31.9171 65.4851 32.4896 65.0232 32.4896 64.4377C32.4896 63.9562 32.1903 63.6114 31.6959 63.6114C31.208 63.6114 30.8892 63.9953 30.8892 64.4572C30.8892 64.6068 30.9152 64.7565 30.9673 64.8996H30.1931C30.128 64.7109 30.1085 64.5873 30.1085 64.4117C30.1085 63.5334 30.8306 62.9023 31.7154 62.9023C32.6913 62.9023 33.3158 63.5073 33.3158 64.3856C33.3158 65.2119 32.6913 65.7779 32.0342 66.2983L31.2535 66.9164H33.3744V67.645H30.1085V66.9684Z" fill="white"/>
<path d="M62.2168 9H18.7869C16.8289 9 15.2417 10.5873 15.2417 12.5453V78.1331C15.2417 80.0911 16.8289 81.6784 18.7869 81.6784H62.2168C64.1748 81.6784 65.7621 80.0911 65.7621 78.1331V12.5453C65.7621 10.5873 64.1748 9 62.2168 9Z" fill="#F6F9FC"/>
<path d="M40.5694 49.291C33.0541 49.291 26.8896 55.0752 26.285 62.4346C26.2312 63.0895 26.7691 63.6241 27.4262 63.6241H53.7127C54.3698 63.6241 54.9077 63.0895 54.8539 62.4346C54.2493 55.0752 48.0848 49.291 40.5694 49.291Z" fill="#FAB000"/>
<path d="M40.333 33.5C32.8176 33.5 26.6532 39.2842 26.0486 46.6436C25.9948 47.2985 26.5326 47.8331 27.1898 47.8331H53.4762C54.1334 47.8331 54.6712 47.2985 54.6174 46.6436C54.0128 39.2842 47.8484 33.5 40.333 33.5Z" fill="#F6F9FC"/>
<mask id="mask0_4003_234" style="mask-type:alpha" maskUnits="userSpaceOnUse" x="26" y="34" width="29" height="15">
<path d="M40.333 34.5C32.8176 34.5 26.6532 40.2842 26.0486 47.6436C25.9948 48.2985 26.5326 48.8331 27.1898 48.8331H53.4762C54.1334 48.8331 54.6712 48.2985 54.6174 47.6436C54.0128 40.2842 47.8484 34.5 40.333 34.5Z" fill="#F6F9FC"/>
</mask>
<g mask="url(#mask0_4003_234)">
<path d="M33.4977 45.7404C39.8315 45.7404 44.9661 40.512 44.9661 34.0626C44.9661 27.6131 39.8315 22.3848 33.4977 22.3848C27.1639 22.3848 22.0293 27.6131 22.0293 34.0626C22.0293 40.512 27.1639 45.7404 33.4977 45.7404Z" fill="#2C09F1"/>
<path d="M33.7994 58.6602C38.8196 58.4995 42.7562 54.2114 42.5921 49.0823C42.428 43.9532 38.2253 39.9255 33.2051 40.0861C28.1849 40.2467 24.2483 44.5349 24.4124 49.664C24.5765 54.793 28.7792 58.8208 33.7994 58.6602Z" fill="#FAC300"/>
<path d="M46.3982 41.6253C51.2217 41.6253 55.1319 37.5105 55.1319 32.4347C55.1319 27.3589 51.2217 23.2441 46.3982 23.2441C41.5747 23.2441 37.6646 27.3589 37.6646 32.4347C37.6646 37.5105 41.5747 41.6253 46.3982 41.6253Z" fill="#FF4FD8"/>
</g>
<path d="M21.5646 15.8293H20.7319V20.5005H21.5646V15.8293ZM22.0569 19.8499C22.3627 20.3183 22.9937 20.5721 23.6248 20.5721C24.399 20.5721 25.03 20.1297 25.03 19.4401C25.03 18.6594 24.3014 18.5358 23.7224 18.4121C23.293 18.3211 23.0458 18.2755 23.0458 18.0283C23.0458 17.8006 23.254 17.6575 23.5727 17.6575C23.9501 17.6575 24.2754 17.8331 24.4705 18.1389L24.9975 17.664C24.7503 17.2866 24.2168 17.0199 23.6183 17.0199C22.8311 17.0199 22.2846 17.4753 22.2846 18.0999C22.2846 18.8285 22.9027 18.9651 23.4426 19.0757C23.9826 19.1863 24.2689 19.2189 24.2689 19.5116C24.2689 19.8174 23.9631 19.9345 23.6313 19.9345C23.2344 19.9345 22.8441 19.7133 22.6424 19.3815L22.0569 19.8499ZM25.2717 19.8499C25.5774 20.3183 26.2085 20.5721 26.8396 20.5721C27.6138 20.5721 28.2448 20.1297 28.2448 19.4401C28.2448 18.6594 27.5162 18.5358 26.9372 18.4121C26.5078 18.3211 26.2606 18.2755 26.2606 18.0283C26.2606 17.8006 26.4687 17.6575 26.7875 17.6575C27.1649 17.6575 27.4901 17.8331 27.6853 18.1389L28.2123 17.664C27.9651 17.2866 27.4316 17.0199 26.8331 17.0199C26.0459 17.0199 25.4994 17.4753 25.4994 18.0999C25.4994 18.8285 26.1174 18.9651 26.6574 19.0757C27.1974 19.1863 27.4836 19.2189 27.4836 19.5116C27.4836 19.8174 27.1779 19.9345 26.8461 19.9345C26.4492 19.9345 26.0589 19.7133 25.8572 19.3815L25.2717 19.8499ZM31.6873 17.085H30.9066V19.1148C30.9066 19.6027 30.5553 19.8629 30.204 19.8629C29.7811 19.8629 29.5989 19.5962 29.5989 19.1798V17.085H28.8182V19.349C28.8182 20.0841 29.2606 20.5721 29.9763 20.5721C30.4187 20.5721 30.7114 20.3639 30.9066 20.1362V20.5005H31.6873V17.085ZM33.9544 20.5721C34.6375 20.5721 35.1775 20.2142 35.4182 19.6157L34.7481 19.362C34.644 19.7133 34.3383 19.9085 33.9544 19.9085C33.4535 19.9085 33.1022 19.5507 33.0436 18.9651H35.4377V18.7049C35.4377 17.7681 34.9108 17.0199 33.9219 17.0199C32.972 17.0199 32.2954 17.7941 32.2954 18.796C32.2954 19.8499 32.9785 20.5721 33.9544 20.5721ZM33.9154 17.677C34.4098 17.677 34.644 18.0023 34.6505 18.3796H33.0826C33.1997 17.9177 33.512 17.677 33.9154 17.677ZM37.1754 18.1649C37.1754 19.5897 37.852 20.5721 39.01 20.5721C40.168 20.5721 40.8446 19.5897 40.8446 18.1649C40.8446 16.7402 40.168 15.7578 39.01 15.7578C37.852 15.7578 37.1754 16.7402 37.1754 18.1649ZM38.0081 18.1649C38.0081 17.1825 38.3204 16.4799 39.01 16.4799C39.6996 16.4799 40.0119 17.1825 40.0119 18.1649C40.0119 19.1473 39.6996 19.8499 39.01 19.8499C38.3204 19.8499 38.0081 19.1473 38.0081 18.1649ZM41.286 18.1649C41.286 19.5897 41.9626 20.5721 43.1206 20.5721C44.2786 20.5721 44.9552 19.5897 44.9552 18.1649C44.9552 16.7402 44.2786 15.7578 43.1206 15.7578C41.9626 15.7578 41.286 16.7402 41.286 18.1649ZM42.1187 18.1649C42.1187 17.1825 42.431 16.4799 43.1206 16.4799C43.8102 16.4799 44.1225 17.1825 44.1225 18.1649C44.1225 19.1473 43.8102 19.8499 43.1206 19.8499C42.431 19.8499 42.1187 19.1473 42.1187 18.1649ZM46.6009 15.7968C46.5554 16.3498 46.3146 16.5515 45.7291 16.6035L45.2737 16.6426V17.2606H46.3992V20.5005H47.232V15.7968H46.6009Z" fill="#4C555F"/>
<defs>
<linearGradient id="paint0_linear_4003_234" x1="47.861" y1="73.1784" x2="27.2626" y2="-18.3913" gradientUnits="userSpaceOnUse">
<stop stop-color="#6237D5"/>
<stop offset="1" stop-color="#E28CDF"/>
</linearGradient>
<radialGradient id="paint1_radial_4003_234" cx="0" cy="0" r="1" gradientUnits="userSpaceOnUse" gradientTransform="translate(-1.56625 27.6902) rotate(46.7856) scale(48.3427 927.894)">
<stop stop-color="#2C09F1"/>
<stop offset="0.328125" stop-color="#ED8EF8"/>
<stop offset="0.578125" stop-color="#F7CE5D"/>
</radialGradient>
</defs>
</svg>
