<svg width="200" height="40" viewBox="0 0 200 40" fill="none" xmlns="http://www.w3.org/2000/svg">
<path fill-rule="evenodd" clip-rule="evenodd" d="M111.58 33.9112C106.18 37.9012 98.37 40.0012 91.64 40.0012C82.6447 40.0495 73.9548 36.7404 67.27 30.7212C66.77 30.2712 67.22 29.6412 67.83 30.0012C75.2523 34.2398 83.6528 36.4666 92.2 36.4612C98.18 36.4612 104.75 35.2212 110.8 32.6612C111.7 32.2712 112.47 33.2612 111.58 33.9112Z" fill="#EFA82E"/>
<path fill-rule="evenodd" clip-rule="evenodd" d="M113.82 31.3607C113.13 30.4807 109.26 30.9407 107.52 31.1507C107 31.2107 106.92 30.7507 107.39 30.4207C110.48 28.2507 115.54 28.8807 116.12 29.6007C116.72 30.3407 115.97 35.4007 113.08 37.8107C112.63 38.1907 112.21 37.9907 112.41 37.5007C113.06 35.8707 114.51 32.2407 113.82 31.3607Z" fill="#EFA82E"/>
<path fill-rule="evenodd" clip-rule="evenodd" d="M107.65 15.1305V13.0305C107.65 12.7005 107.89 12.4905 108.18 12.4905H117.63C117.93 12.4905 118.17 12.7105 118.17 13.0205V14.8205C118.17 15.1205 117.91 15.5205 117.46 16.1505L112.56 23.1205C114.38 23.0805 116.3 23.3505 117.96 24.2805C118.32 24.4805 118.43 24.7905 118.46 25.1005V27.3405C118.46 27.6505 118.12 28.0105 117.76 27.8205C116.216 27.0281 114.504 26.6165 112.768 26.62C111.032 26.6235 109.322 27.042 107.78 27.8405C107.45 28.0105 107.11 27.6605 107.11 27.3505V25.2205C107.11 24.8805 107.11 24.2905 107.46 23.7705L113.13 15.6605H108.19C108.12 15.6619 108.05 15.6491 107.984 15.6231C107.919 15.5971 107.859 15.5582 107.809 15.5089C107.759 15.4595 107.719 15.4007 107.691 15.3357C107.664 15.2707 107.65 15.201 107.65 15.1305ZM73.2002 28.2605H70.3202C70.1938 28.2519 70.0744 28.1991 69.983 28.1114C69.8916 28.0236 69.834 27.9065 69.8202 27.7805V13.0605C69.8202 12.7605 70.0602 12.5305 70.3702 12.5305H73.0402C73.3202 12.5405 73.5402 12.7605 73.5602 13.0305V14.9505H73.6202C74.3202 13.0905 75.6202 12.2205 77.4002 12.2205C79.2002 12.2205 80.3202 13.0905 81.1302 14.9505C81.4159 14.1347 81.9534 13.4306 82.6651 12.94C83.3769 12.4493 84.226 12.1974 85.0902 12.2205C86.2902 12.2205 87.6102 12.7205 88.4202 13.8305C89.3202 15.0705 89.1402 16.8705 89.1402 18.4505V27.7305C89.1402 28.0305 88.8902 28.2605 88.5902 28.2605H85.7202C85.5839 28.2556 85.4545 28.1992 85.358 28.1027C85.2615 28.0063 85.2052 27.8769 85.2002 27.7405V19.9405C85.2002 19.3105 85.2602 17.7605 85.1202 17.1805C84.9002 16.1805 84.2602 15.9105 83.4302 15.9105C82.7302 15.9105 82.0102 16.3705 81.7102 17.1105C81.4202 17.8605 81.4502 19.1005 81.4502 19.9305V27.7305C81.4502 28.0305 81.2002 28.2605 80.8902 28.2605H78.0202C77.8856 28.2531 77.7587 28.1957 77.6643 28.0995C77.57 28.0033 77.515 27.8752 77.5102 27.7405V19.9405C77.5102 18.2905 77.7702 15.8805 75.7402 15.8805C73.6702 15.8805 73.7502 18.2305 73.7502 19.9305V27.7305C73.7502 28.0305 73.5002 28.2605 73.2002 28.2605ZM126.31 15.2305C124.2 15.2305 124.06 18.1105 124.06 19.9005C124.06 21.7005 124.04 25.5405 126.29 25.5405C128.51 25.5405 128.62 22.4405 128.62 20.5505C128.62 19.3105 128.57 17.8305 128.19 16.6505C127.87 15.6305 127.23 15.2305 126.31 15.2305ZM126.29 12.2205C130.55 12.2205 132.86 15.8805 132.86 20.5205C132.86 25.0205 130.31 28.5705 126.29 28.5705C122.1 28.5705 119.83 24.9205 119.83 20.3705C119.83 15.7805 122.13 12.2205 126.29 12.2205ZM138.39 28.2605H135.52C135.386 28.2531 135.259 28.1957 135.164 28.0995C135.07 28.0033 135.015 27.8752 135.01 27.7405V13.0005C135.027 12.8671 135.093 12.7446 135.194 12.6561C135.295 12.5677 135.426 12.5195 135.56 12.5205H138.22C138.47 12.5305 138.68 12.7005 138.73 12.9305V15.1805H138.78C139.59 13.1705 140.72 12.2105 142.7 12.2105C143.99 12.2105 145.25 12.6805 146.05 13.9505C146.8 15.1205 146.8 17.1105 146.8 18.5305V27.7905C146.779 27.9203 146.711 28.0381 146.61 28.1225C146.51 28.2069 146.382 28.2523 146.25 28.2505H143.37C143.247 28.2427 143.13 28.1928 143.039 28.109C142.948 28.0253 142.888 27.9129 142.87 27.7905V19.7905C142.87 18.1905 143.05 15.8405 141.07 15.8405C140.37 15.8405 139.72 16.3005 139.4 17.0105C139 17.9105 138.94 18.8105 138.94 19.8005V27.7205C138.94 28.0205 138.69 28.2505 138.39 28.2505M103.01 28.2205C102.916 28.2985 102.801 28.346 102.68 28.3567C102.558 28.3674 102.436 28.3408 102.33 28.2805C101.37 27.4905 101.2 27.1305 100.68 26.3805C99.1102 27.9805 97.9802 28.4605 95.9502 28.4605C93.5302 28.4605 91.6502 26.9605 91.6502 23.9905C91.6157 22.9889 91.891 22.0011 92.4387 21.1617C92.9863 20.3224 93.7795 19.6724 94.7102 19.3005C96.2702 18.6205 98.4502 18.5005 100.11 18.3005V17.9405C100.11 17.2505 100.17 16.4405 99.7602 15.8605C99.4102 15.3305 98.7402 15.1105 98.1502 15.1105C97.0502 15.1105 96.0802 15.6705 95.8402 16.8305C95.7902 17.0905 95.6002 17.3505 95.3402 17.3605L92.5602 17.0605C92.3202 17.0105 92.0602 16.8205 92.1302 16.4605C92.7702 13.0905 95.8202 12.0605 98.5502 12.0605C99.9502 12.0605 101.78 12.4405 102.88 13.5005C104.28 14.8005 104.14 16.5405 104.14 18.4305V22.9005C104.14 24.2405 104.7 24.8305 105.23 25.5605C105.41 25.8205 105.45 26.1305 105.22 26.3205C104.63 26.8105 103.59 27.7205 103.02 28.2205H103.01ZM100.11 21.2205C100.11 22.3405 100.14 23.2705 99.5702 24.2705C99.1202 25.0705 98.3902 25.5705 97.5902 25.5705C96.4902 25.5705 95.8402 24.7305 95.8402 23.4905C95.8402 21.0505 98.0402 20.6105 100.11 20.6105V21.2205ZM65.3502 28.2205C65.2564 28.2985 65.141 28.346 65.0196 28.3567C64.8981 28.3674 64.7762 28.3408 64.6702 28.2805C63.7202 27.4905 63.5502 27.1305 63.0202 26.3805C61.4502 27.9805 60.3302 28.4605 58.2902 28.4605C55.8702 28.4605 53.9902 26.9605 53.9902 23.9905C53.9557 22.9889 54.231 22.0011 54.7787 21.1617C55.3263 20.3224 56.1195 19.6724 57.0502 19.3005C58.6102 18.6205 60.7902 18.5005 62.4502 18.3005V17.9405C62.4502 17.2505 62.5102 16.4405 62.1002 15.8605C61.7602 15.3305 61.0802 15.1105 60.5002 15.1105C59.4002 15.1105 58.4202 15.6705 58.1802 16.8305C58.1302 17.0905 57.9402 17.3505 57.6802 17.3605L54.9002 17.0605C54.6702 17.0105 54.4002 16.8205 54.4702 16.4605C55.1102 13.0905 58.1702 12.0605 60.9002 12.0605C62.3002 12.0605 64.1202 12.4405 65.2202 13.5005C66.6202 14.8005 66.4902 16.5405 66.4902 18.4305V22.9005C66.4902 24.2405 67.0402 24.8305 67.5702 25.5605C67.7502 25.8205 67.7902 26.1305 67.5602 26.3205C66.9702 26.8105 65.9302 27.7205 65.3602 28.2205H65.3502ZM62.4502 21.2205C62.4502 22.3405 62.4802 23.2705 61.9202 24.2705C61.4602 25.0705 60.7402 25.5705 59.9202 25.5705C58.8202 25.5705 58.1802 24.7305 58.1802 23.4905C58.1802 21.0505 60.3802 20.6105 62.4602 20.6105V21.2205H62.4502Z" fill="#1B1A19"/>
</svg>
