<svg width="121" height="97" viewBox="0 0 121 97" fill="none" xmlns="http://www.w3.org/2000/svg">
<path d="M32.7921 51.2368L32.884 63.0243C32.8893 63.5552 32.7889 64.0818 32.5886 64.5735C32.3883 65.0652 32.0921 65.5121 31.7173 65.8881L17.2216 80.3838C16.659 80.9464 15.8959 81.2625 15.1003 81.2625C14.3046 81.2625 13.5416 80.9464 12.9789 80.3838L1.66524 69.0701C1.10263 68.5075 0.786552 67.7444 0.786553 66.9488C0.786554 66.1531 1.10263 65.3901 1.66524 64.8274L16.1609 50.3317C16.537 49.957 16.9838 49.6608 17.4755 49.4605C17.9672 49.2601 18.4938 49.1597 19.0247 49.165L30.8122 49.2569C31.3357 49.2622 31.8362 49.4725 32.2064 49.8426C32.5766 50.2128 32.7869 50.7134 32.7921 51.2368ZM27.8282 54.2208C27.2656 53.6582 26.5025 53.3422 25.7069 53.3422C24.9112 53.3422 24.1482 53.6582 23.5856 54.2208C23.0229 54.7834 22.7069 55.5465 22.7069 56.3422C22.7069 57.1378 23.0229 57.9009 23.5856 58.4635C24.1482 59.0261 24.9112 59.3422 25.7069 59.3422C26.5025 59.3422 27.2656 59.0261 27.8282 58.4635C28.3908 57.9009 28.7069 57.1378 28.7069 56.3422C28.7069 55.5465 28.3908 54.7834 27.8282 54.2208Z" fill="#80E9FF"/>
<path d="M66.4 30.8608L74.8 39.1308C75.1791 39.5024 75.4805 39.9458 75.6865 40.4351C75.8926 40.9244 75.9991 41.4499 76 41.9808V62.4808C76 63.2764 75.6839 64.0395 75.1213 64.6021C74.5587 65.1647 73.7956 65.4808 73 65.4808H57C56.2044 65.4808 55.4413 65.1647 54.8787 64.6021C54.3161 64.0395 54 63.2764 54 62.4808V41.9808C54.0009 41.4499 54.1074 40.9244 54.3135 40.4351C54.5195 39.9458 54.8209 39.5024 55.2 39.1308L63.6 30.8608C63.9739 30.4943 64.4765 30.2891 65 30.2891C65.5235 30.2891 66.0261 30.4943 66.4 30.8608ZM65 36.4808C64.2044 36.4808 63.4413 36.7968 62.8787 37.3595C62.3161 37.9221 62 38.6851 62 39.4808C62 40.2764 62.3161 41.0395 62.8787 41.6021C63.4413 42.1647 64.2044 42.4808 65 42.4808C65.7956 42.4808 66.5587 42.1647 67.1213 41.6021C67.6839 41.0395 68 40.2764 68 39.4808C68 38.6851 67.6839 37.9221 67.1213 37.3595C66.5587 36.7968 65.7956 36.4808 65 36.4808Z" fill="#7A73FF"/>
</svg>
