<svg width="206" height="106" viewBox="0 0 206 106" fill="none" xmlns="http://www.w3.org/2000/svg">
<mask id="mask0_4003_156" style="mask-type:luminance" maskUnits="userSpaceOnUse" x="0" y="0" width="206" height="106">
<path d="M0.00878906 0.890625H205.491V105.5H0.00878906V0.890625Z" fill="white"/>
</mask>
<g mask="url(#mask0_4003_156)">
<g opacity="0.3">
<path d="M204.206 102.662H0.765137V102.99H204.206V102.662Z" fill="#C4CCD8"/>
<path d="M204.206 102.662H0.765137V102.99H204.206V102.662Z" stroke="#C4CCD8" stroke-width="0.395086"/>
</g>
<path d="M0.660645 8.23707L1.23039 7.77007C1.54795 8.37717 2.03924 8.71995 2.68091 8.79001V6.78749C1.81788 6.6091 0.929639 6.36719 0.929639 5.3239C0.929639 4.42818 1.69739 3.82108 2.67997 3.74356V3.00195H3.25719V3.74916C4.07351 3.8435 4.69183 4.24138 4.98511 4.81673L4.43871 5.26973C4.19213 4.79338 3.80452 4.46648 3.25812 4.37308V6.22709C4.12955 6.40642 5.02433 6.66327 5.02433 7.76166C5.02433 8.69567 4.25564 9.31212 3.25906 9.4214V10.1761H2.67997V9.42887C1.77679 9.35041 1.01744 8.90676 0.660645 8.23707ZM1.62734 5.27626C1.62734 5.7909 2.09435 5.97771 2.68091 6.10286V4.35813C2.071 4.41978 1.62734 4.76349 1.62734 5.27626ZM4.32756 7.80836C4.32756 7.25636 3.85309 7.05182 3.25812 6.91265V8.79001C3.86897 8.71155 4.32756 8.39305 4.32756 7.8093V7.80836ZM6.92691 3.7585H7.49666V9.3831H6.73637V5.26879H5.36712V4.71679L5.97609 4.67756C6.65044 4.63086 6.8718 4.40577 6.92691 3.7585ZM8.38677 8.76666L10.0652 7.39553C10.8423 6.76508 11.4438 6.22802 11.4438 5.49576C11.4438 4.81019 10.9917 4.34226 10.2949 4.34226C9.61405 4.34226 9.14612 4.85596 9.14612 5.49576C9.14612 5.6975 9.19282 5.90672 9.27314 6.10286H8.56049C8.47873 5.89707 8.43567 5.67796 8.43347 5.45653C8.43347 4.45807 9.26473 3.70339 10.3108 3.70339C11.4597 3.70339 12.1882 4.41978 12.1882 5.44812C12.1882 6.39894 11.5232 7.05275 10.7068 7.69908L9.42352 8.72836H12.2993V9.38217H8.38583V8.76572L8.38677 8.76666ZM13.8479 3.78839V7.20873L15.686 5.30802H16.5734L14.9575 6.91265L16.7079 9.38217H15.8757L14.4485 7.41888L13.8479 8.01852V9.38217H13.1343V3.78932H13.847L13.8479 3.78839ZM0.914695 96.811C0.914695 95.1055 1.73102 93.9286 3.08533 93.9286C4.43217 93.9286 5.24756 95.1055 5.24756 96.811C5.24756 98.5174 4.43217 99.6924 3.08627 99.6924C1.73195 99.6924 0.914695 98.5174 0.914695 96.811ZM1.67591 96.811C1.67591 98.1195 2.15879 99.0386 3.08533 99.0386C4.0044 99.0386 4.49569 98.1195 4.49569 96.811C4.49569 95.5025 4.00346 94.5834 3.08533 94.5834C2.15879 94.5834 1.67591 95.5025 1.67591 96.811Z" fill="#727F96"/>
<path opacity="0.3" d="M204.411 46.8308H173.636L142.863 60.7475L112.087 32.9141L81.3134 74.6643L50.5397 102.498H19.7632" stroke="#C4CCD8" stroke-width="0.790172" stroke-linejoin="round"/>
<path d="M19.7642 102.496L50.5398 74.663L81.3135 60.7463L112.087 88.5798L142.863 46.8296H173.637L204.411 18.9961" stroke="white" stroke-width="3.15975" stroke-linejoin="round"/>
<path d="M19.7642 102.496L50.5398 74.663L81.3135 60.7463L112.087 88.5798L142.863 46.8296H173.637L204.411 18.9961" stroke="#635BFF" stroke-width="1.57941" stroke-linejoin="round"/>
<path opacity="0.3" d="M20.202 103.316H19.9097V105.61H20.202V103.316Z" stroke="#C4CCD8" stroke-width="0.395086" stroke-linejoin="round"/>
</g>
</svg>
