<svg width="470" height="70" viewBox="0 0 470 70" fill="none" xmlns="http://www.w3.org/2000/svg">
<path opacity="0.3" d="M2 68.125H469.488V68.748H2V68.125Z" fill="#C4CCD8"/>
<path opacity="0.3" d="M2.15283 0.355469H2.45883V68.2475H2.15283V0.355469ZM21.6058 0.355469H21.9118V68.5935H21.6058V0.355469ZM41.0598 0.355469H41.3658V68.5935H41.0588V0.355469H41.0598ZM60.5118 0.355469H60.8188V68.5935H60.5118V0.355469ZM79.9658 0.355469H80.2718V68.5935H79.9658V0.355469ZM99.4178 0.355469H99.7248V68.5935H99.4188L99.4178 0.355469ZM118.871 0.355469H119.178V68.5935H118.871V0.355469ZM138.325 0.355469H138.632V68.5935H138.325V0.355469ZM157.778 0.355469H158.085V68.5935H157.778V0.355469ZM177.231 0.355469H177.538V68.5935H177.231V0.355469ZM196.684 0.355469H196.991V68.5935H196.684V0.355469ZM216.137 0.355469H216.444V68.5935H216.137V0.355469ZM235.591 0.355469H235.897V68.5935H235.591V0.355469ZM255.044 0.355469H255.35V68.5935H255.044V0.355469ZM274.497 0.355469H274.803V68.2475H274.497V0.355469ZM293.95 0.355469H294.256V68.5935H293.95V0.355469ZM313.404 0.355469H313.709V68.5935H313.404V0.355469ZM332.857 0.355469H333.163V68.5935H332.857V0.355469ZM352.31 0.355469H352.616V68.5935H352.31V0.355469ZM371.762 0.355469H372.068V68.5935H371.762V0.355469ZM391.215 0.355469H391.522V68.5935H391.215V0.355469ZM410.669 0.355469H410.976V68.5935H410.669V0.355469ZM430.122 0.355469H430.429V68.5935H430.122V0.355469ZM449.575 0.355469H449.882V68.5935H449.575V0.355469ZM469.028 0.355469H469.335V68.2475H469.028V0.355469Z" stroke="#C4CCD8" stroke-width="0.423" stroke-linejoin="round"/>
<path opacity="0.3" d="M469.488 29.7422H352.617L333.137 42.5362H294.181L274.702 46.8012H216.266L196.788 55.3302H138.351L118.872 59.5942H99.393L79.915 63.8602L60.436 68.1252H2" stroke="#C4CCD8" stroke-width="0.846" stroke-linejoin="round"/>
<path d="M276.138 28.7502C276.138 27.9162 275.472 27.2402 274.652 27.2402C273.833 27.2402 273.167 27.9162 273.167 28.7502V28.8462C273.167 29.6802 273.833 30.3562 274.652 30.3562C275.472 30.3562 276.138 29.6802 276.138 28.8462V28.7502Z" fill="#635BFF"/>
<path d="M0.065918 68.149H78.2259L97.7659 59.25H175.926L195.466 37.5L215.006 33.15H234.546L254.086 28.998H275.645" stroke="#635BFF" stroke-width="1.271" stroke-linejoin="round"/>
</svg>
