<svg width="200" height="40" viewBox="0 0 200 40" fill="none" xmlns="http://www.w3.org/2000/svg">
<path d="M49.99 5.00005C41.797 5.00005 35.128 11.6681 35.124 19.8641C35.124 22.4841 35.808 25.0421 37.109 27.2961L35 35.0001L42.88 32.9331C45.0596 34.1202 47.502 34.7421 49.984 34.7421H49.99C58.183 34.7421 64.852 28.0721 64.856 19.8771C64.8624 17.9235 64.4812 15.9881 63.7345 14.1828C62.9878 12.3776 61.8905 10.7383 60.506 9.36005C59.1288 7.9737 57.4901 6.87446 55.685 6.12604C53.8799 5.37762 51.9441 4.9949 49.99 5.00005ZM49.99 32.2311H49.985C47.769 32.2311 45.593 31.6341 43.697 30.5091L43.246 30.2421L38.57 31.4681L39.818 26.9091L39.524 26.4421C38.2863 24.4722 37.6311 22.1924 37.634 19.8661C37.637 13.0531 43.18 7.51105 49.996 7.51105C53.296 7.51205 56.398 8.79905 58.73 11.1351C59.8806 12.2805 60.7926 13.6427 61.4132 15.1429C62.0339 16.6431 62.351 18.2515 62.346 19.8751C62.344 26.6881 56.801 32.2311 49.99 32.2311ZM56.767 22.9781C56.397 22.7921 54.57 21.8931 54.229 21.7691C53.889 21.6451 53.641 21.5831 53.393 21.9551C53.146 22.3271 52.434 23.1641 52.218 23.4121C52.001 23.6601 51.784 23.6911 51.413 23.5051C51.042 23.319 49.844 22.9251 48.426 21.6611C47.322 20.6761 46.576 19.4591 46.36 19.0881C46.144 18.7161 46.337 18.5151 46.523 18.3301C46.69 18.1641 46.894 17.8961 47.08 17.6791C47.266 17.4621 47.328 17.3071 47.451 17.0591C47.575 16.8111 47.513 16.5941 47.421 16.4081C47.327 16.2221 46.584 14.3931 46.275 13.6501C45.973 12.9261 45.667 13.0231 45.439 13.0121C45.2018 13.0018 44.9644 12.9974 44.727 12.9991C44.48 12.9991 44.077 13.0921 43.737 13.4641C43.396 13.8361 42.437 14.7341 42.437 16.5621C42.437 18.3911 43.767 20.1571 43.953 20.4051C44.139 20.6531 46.572 24.4051 50.298 26.0131C51.184 26.3961 51.876 26.6241 52.416 26.7951C53.306 27.0781 54.116 27.0381 54.755 26.9421C55.468 26.8351 56.953 26.0441 57.262 25.1751C57.572 24.3081 57.572 23.5651 57.478 23.4091C57.385 23.2541 57.138 23.1611 56.767 22.9751V22.9781ZM83.066 22.7511H83.026L80.561 12.8081H77.591L75.086 22.6301H75.046L72.763 12.8091H69.592L73.41 27.2381H76.622L79.026 17.4161H79.066L81.511 27.2381H84.663L88.542 12.8081H85.43L83.066 22.7511ZM98.218 17.6891C97.935 17.3191 97.548 17.0291 97.057 16.8191C96.565 16.6121 95.935 16.5081 95.167 16.5081C94.629 16.5081 94.077 16.6451 93.511 16.9221C92.945 17.1981 92.481 17.6391 92.117 18.2461H92.056V12.8091H89.188V27.2371H92.056V21.7601C92.056 20.6951 92.231 19.9311 92.582 19.4661C92.932 19.0011 93.498 18.7691 94.279 18.7691C94.965 18.7691 95.443 18.9811 95.713 19.4061C95.983 19.8301 96.118 20.4731 96.118 21.3351V27.2351H98.987V20.8101C98.987 20.1631 98.929 19.5741 98.815 19.0411C98.7 18.5111 98.501 18.0601 98.218 17.6891ZM110.036 24.9131V19.4781C110.036 18.8431 109.896 18.3351 109.612 17.9521C109.328 17.5669 108.954 17.2578 108.522 17.0521C108.056 16.8304 107.558 16.6839 107.046 16.6181C106.517 16.5448 105.985 16.5077 105.451 16.5071C104.872 16.5071 104.296 16.5631 103.724 16.6791C103.18 16.7829 102.657 16.9776 102.178 17.2551C101.725 17.521 101.338 17.887 101.048 18.3251C100.751 18.7701 100.582 19.3291 100.542 20.0031H103.411C103.465 19.4381 103.654 19.0331 103.977 18.7901C104.3 18.5481 104.745 18.4271 105.31 18.4271C105.566 18.4271 105.805 18.4441 106.027 18.4771C106.249 18.5121 106.444 18.5771 106.613 18.6791C106.781 18.7801 106.916 18.9221 107.017 19.1041C107.118 19.2861 107.168 19.5321 107.168 19.8411C107.181 20.1381 107.093 20.3621 106.906 20.5181C106.716 20.6731 106.461 20.7921 106.137 20.8721C105.772 20.9606 105.4 21.0212 105.026 21.0531C104.608 21.0951 104.184 21.1501 103.754 21.2161C103.322 21.2831 102.895 21.3741 102.471 21.4881C102.067 21.5933 101.684 21.7676 101.339 22.0031C101.009 22.2331 100.739 22.5391 100.53 22.9231C100.322 23.3071 100.217 23.7971 100.217 24.3881C100.217 24.9271 100.308 25.3921 100.49 25.7821C100.672 26.1741 100.925 26.4961 101.248 26.7521C101.571 27.0091 101.948 27.1981 102.379 27.3191C102.809 27.4401 103.275 27.5011 103.773 27.5011C104.417 27.5011 105.056 27.4057 105.672 27.2181C106.287 27.0316 106.844 26.6904 107.289 26.2271C107.314 26.5708 107.381 26.9101 107.49 27.2371H110.4C110.265 27.0221 110.17 26.6991 110.116 26.2671C110.061 25.8178 110.035 25.3656 110.036 24.9131ZM107.168 23.1951C107.168 23.3581 107.152 23.5741 107.118 23.8431C107.085 24.1131 106.993 24.3781 106.845 24.6411C106.696 24.9041 106.467 25.1311 106.157 25.3181C105.848 25.5081 105.41 25.6011 104.844 25.6011C104.615 25.6011 104.393 25.5811 104.177 25.5401C103.977 25.5055 103.785 25.4336 103.611 25.3281C103.449 25.2259 103.316 25.0827 103.227 24.9131C103.127 24.7127 103.079 24.4907 103.086 24.2671C103.086 23.9981 103.133 23.7751 103.227 23.6001C103.318 23.4291 103.446 23.2807 103.602 23.1661C103.768 23.0459 103.952 22.9536 104.147 22.8931C104.355 22.8261 104.567 22.7721 104.784 22.7311C105.012 22.6911 105.242 22.6561 105.47 22.6311C105.7 22.6041 105.918 22.5701 106.127 22.5291C106.336 22.489 106.531 22.4391 106.714 22.3781C106.895 22.3171 107.046 22.2341 107.168 22.1251V23.1951ZM115.391 13.6581H112.522V16.7891H110.785V18.7091H112.522V24.8731C112.522 25.3991 112.61 25.8231 112.785 26.1461C112.961 26.4691 113.2 26.7201 113.502 26.8941C113.827 27.0771 114.184 27.1969 114.553 27.2471C114.95 27.3071 115.372 27.3381 115.816 27.3381C116.1 27.3381 116.389 27.3311 116.686 27.3191C116.957 27.3081 117.227 27.281 117.494 27.2381V25.0151C117.354 25.0431 117.212 25.0632 117.069 25.0751C116.915 25.0899 116.76 25.0969 116.605 25.0961C116.121 25.0961 115.797 25.0151 115.635 24.8531C115.474 24.6911 115.394 24.3681 115.394 23.8831V18.7091H117.495V16.7891H115.394V13.6571H115.391V13.6581ZM127.249 22.6611C127.063 22.3336 126.808 22.0504 126.502 21.8311C126.176 21.6019 125.819 21.4217 125.441 21.2961C125.04 21.1612 124.632 21.0468 124.219 20.9531C123.823 20.8601 123.425 20.7725 123.027 20.6901C122.675 20.619 122.328 20.5282 121.986 20.4181C121.718 20.335 121.468 20.2008 121.25 20.0231C121.159 19.947 121.086 19.8511 121.037 19.7426C120.988 19.6341 120.964 19.516 120.968 19.3971C120.968 19.1811 121.02 19.0091 121.129 18.8821C121.236 18.7553 121.371 18.6548 121.523 18.5881C121.679 18.5211 121.849 18.4781 122.038 18.4571C122.226 18.4371 122.402 18.4271 122.563 18.4271C123.074 18.4271 123.519 18.5251 123.897 18.7201C124.274 18.9161 124.483 19.2901 124.522 19.8411H127.25C127.196 19.1951 127.031 18.6591 126.755 18.2341C126.489 17.8202 126.134 17.4715 125.715 17.2141C125.276 16.9491 124.794 16.7643 124.29 16.6681C123.748 16.5596 123.197 16.5056 122.645 16.5071C122.08 16.5071 121.526 16.5571 120.989 16.6571C120.478 16.7485 119.985 16.9267 119.534 17.1841C119.106 17.4302 118.748 17.7813 118.493 18.2041C118.23 18.6341 118.099 19.1871 118.099 19.8611C118.099 20.3191 118.193 20.7071 118.383 21.0241C118.57 21.3411 118.82 21.6021 119.128 21.8121C119.44 22.0201 119.793 22.1901 120.19 22.3171C120.587 22.4471 120.995 22.5571 121.412 22.6511C122.437 22.8671 123.235 23.0821 123.807 23.2991C124.38 23.5141 124.665 23.8371 124.665 24.2691C124.665 24.5251 124.605 24.7351 124.484 24.9041C124.365 25.0711 124.209 25.2092 124.029 25.3081C123.839 25.4124 123.635 25.4873 123.423 25.5301C123.214 25.5761 123 25.5999 122.786 25.6011C122.503 25.6011 122.231 25.5671 121.968 25.5011C121.718 25.4392 121.482 25.3329 121.27 25.1871C121.067 25.0437 120.898 24.8573 120.775 24.6411C120.642 24.3966 120.576 24.1213 120.583 23.8431H117.856C117.884 24.5431 118.041 25.1261 118.332 25.5911C118.61 26.0458 118.99 26.4298 119.442 26.7131C119.893 26.9951 120.409 27.1981 120.989 27.3191C122.151 27.5588 123.35 27.5622 124.513 27.3291C125.054 27.2272 125.571 27.025 126.038 26.7331C126.483 26.4509 126.853 26.0666 127.119 25.6121C127.395 25.1461 127.533 24.5711 127.533 23.8831C127.533 23.3981 127.439 22.9911 127.251 22.6621L127.249 22.6611ZM132.946 12.8081L127.491 27.2381H130.683L131.814 24.0241H137.208L138.298 27.2381H141.592L136.198 12.8081H132.946ZM132.643 21.6611L134.522 16.3661H134.562L136.381 21.6611H132.643ZM151.512 18.2051C151.118 17.6899 150.614 17.2691 150.037 16.9731C149.445 16.6631 148.738 16.5081 147.917 16.5081C147.27 16.5081 146.678 16.6351 146.139 16.8911C145.599 17.1471 145.156 17.5581 144.806 18.1241H144.765V16.7891H142.037V30.8961H144.908V25.9451H144.947C145.297 26.4571 145.746 26.8441 146.292 27.1051C146.85 27.371 147.462 27.5061 148.08 27.5001C148.848 27.5001 149.518 27.3501 150.09 27.0551C150.65 26.7683 151.14 26.3609 151.524 25.8621C151.915 25.3482 152.207 24.7659 152.384 24.1451C152.57 23.4981 152.666 22.8251 152.666 22.1241C152.666 21.3831 152.57 20.6731 152.384 19.9911C152.211 19.3451 151.915 18.7382 151.514 18.2031L151.512 18.2051ZM149.674 23.2771C149.592 23.6821 149.454 24.0351 149.26 24.3371C149.064 24.6411 148.809 24.8871 148.491 25.0761C148.175 25.2641 147.781 25.3601 147.31 25.3601C146.839 25.3601 146.462 25.2651 146.139 25.0761C145.824 24.896 145.557 24.6429 145.361 24.3381C145.156 24.0131 145.013 23.6536 144.937 23.2771C144.849 22.8723 144.805 22.4592 144.806 22.0451C144.806 21.6291 144.845 21.1951 144.926 20.7921C144.998 20.4123 145.139 20.0489 145.342 19.7201C145.535 19.4101 145.792 19.1591 146.11 18.9631C146.426 18.7681 146.819 18.6691 147.291 18.6691C147.762 18.6691 148.137 18.7681 148.452 18.9631C148.769 19.1581 149.029 19.4131 149.23 19.7311C149.432 20.0481 149.576 20.4081 149.665 20.8111C149.752 21.2169 149.796 21.6309 149.795 22.0461C149.795 22.4641 149.755 22.8741 149.674 23.2761V23.2771ZM163.815 19.9931C163.643 19.3468 163.348 18.7398 162.946 18.2051C162.552 17.6902 162.049 17.2694 161.472 16.9731C160.879 16.6631 160.171 16.5081 159.35 16.5081C158.704 16.5081 158.111 16.6351 157.573 16.8911C157.034 17.1471 156.589 17.5581 156.239 18.1241H156.2V16.7891H153.472V30.8961H156.341V25.9451H156.382C156.732 26.4571 157.18 26.8441 157.725 27.1051C158.283 27.3708 158.895 27.5059 159.513 27.5001C160.281 27.5001 160.95 27.3501 161.523 27.0551C162.084 26.7686 162.573 26.3611 162.957 25.8621C163.342 25.3631 163.627 24.7921 163.816 24.1451C164.005 23.4981 164.099 22.8251 164.099 22.1241C164.099 21.3831 164.005 20.6731 163.816 19.9911L163.815 19.9931ZM161.107 23.2771C161.038 23.6536 160.898 24.0135 160.693 24.3371C160.497 24.6411 160.242 24.8871 159.925 25.0761C159.609 25.2641 159.215 25.3601 158.743 25.3601C158.272 25.3601 157.895 25.2651 157.571 25.0761C157.256 24.896 156.989 24.6429 156.793 24.3381C156.589 24.0129 156.445 23.6534 156.369 23.2771C156.281 22.8723 156.237 22.4593 156.237 22.0451C156.237 21.6291 156.278 21.1951 156.359 20.7921C156.431 20.4124 156.571 20.049 156.774 19.7201C156.968 19.4101 157.225 19.1591 157.542 18.9631C157.857 18.7681 158.252 18.6691 158.723 18.6691C159.195 18.6691 159.568 18.7681 159.884 18.9631C160.202 19.1581 160.461 19.4131 160.663 19.7311C160.865 20.0481 161.011 20.4081 161.097 20.8111C161.186 21.2161 161.229 21.6281 161.229 22.0461C161.229 22.4641 161.188 22.8741 161.107 23.2761V23.2771Z" fill="#25D366"/>
</svg>
